<?xml version="1.0" encoding="UTF-8"?>
<svg width="172px" height="168px" viewBox="0 0 172 168" version="1.1" xmlns="http://www.w3.org/2000/svg" xmlns:xlink="http://www.w3.org/1999/xlink">
    <!-- Generator: Sketch 41.2 (35397) - http://www.bohemiancoding.com/sketch -->
    <title>Dark Title Block Copy 2</title>
    <desc>Created with Sketch.</desc>
    <defs></defs>
    <g id="Canvas" stroke="none" stroke-width="1" fill="none" fill-rule="evenodd">
        <g id="Dark-Title" transform="translate(-15.000000, -16.000000)">
            <g id="Dark-Title-Block-Copy-2" transform="translate(14.000000, 16.000000)">
                <path d="M1.19304409,117.808382 L17.54801,117.808382 C21.5086341,117.808382 25.2711706,118.253562 28.8357323,119.143937 C32.400294,120.034311 35.5105021,121.47529 38.16645,123.466917 C40.822398,125.458544 42.9308162,128.047621 44.4917681,131.234224 C46.0527199,134.420827 46.8331841,138.286869 46.8331841,142.832465 C46.8331841,146.862581 46.0760174,150.41231 44.5616611,153.481759 C43.0473048,156.551208 41.0087789,159.128569 38.4460221,161.213919 C35.8832653,163.29927 32.9244905,164.880833 29.569609,165.958654 C26.2147274,167.036476 22.696814,167.575379 19.0157634,167.575379 L1.19304409,167.575379 L1.19304409,117.808382 Z M12.0963547,157.453278 L17.7576891,157.453278 C20.2738503,157.453278 22.6152429,157.195542 24.7819373,156.680062 C26.9486317,156.164582 28.8240755,155.309366 30.4083252,154.11439 C31.9925748,152.919414 33.2389878,151.349567 34.1476016,149.404801 C35.0562153,147.460036 35.5105154,145.081835 35.5105154,142.270126 C35.5105154,139.833312 35.0562153,137.712846 34.1476016,135.908667 C33.2389878,134.104487 32.0158722,132.616647 30.4782182,131.445101 C28.9405641,130.273556 27.1350126,129.39491 25.0615094,128.809137 C22.9880062,128.223365 20.8096956,127.930483 18.5265123,127.930483 L12.0963547,127.930483 L12.0963547,157.453278 Z M68.1955032,117.808382 L77.2117024,117.808382 L98.7387516,167.575379 L86.4375806,167.575379 L82.1741066,157.031523 L62.9535269,157.031523 L58.8298389,167.575379 L46.80824,167.575379 L68.1955032,117.808382 Z M72.3890842,132.28861 L66.3782848,147.752931 L78.4697767,147.752931 L72.3890842,132.28861 Z M101.7891,117.808382 L112.692411,117.808382 L112.692411,157.453278 L132.891493,157.453278 L132.891493,167.575379 L101.7891,167.575379 L101.7891,117.808382 Z M140.974139,146.347083 L122.382596,117.808382 L135.941841,117.808382 L146.425794,136.435859 L157.538784,117.808382 L170.468992,117.808382 L151.877449,146.347083 L151.877449,167.575379 L140.974139,167.575379 L140.974139,146.347083 Z" id="DALY" fill="#FBFCF6"></path>
                <path d="M36.8625908,92.9592288 C36.8625908,95.5887812 36.6358165,98.1377988 36.1822612,100.606358 C35.7287058,103.074918 34.8616277,105.261706 33.5810009,107.16679 C32.300374,109.071874 30.4728402,110.601285 28.0983446,111.755068 C25.723849,112.908851 22.6157076,113.485734 18.7738271,113.485734 C14.2916331,113.485734 10.5031689,112.412464 7.40832067,110.26589 C4.31347246,108.119317 2.31252304,104.765346 1.40541236,100.203878 L12.8509575,97.3865142 C13.0110359,98.781787 13.638,99.9623846 14.7318688,100.928343 C15.8257376,101.894301 17.0663262,102.377272 18.453672,102.377272 C19.8943771,102.377272 21.0149088,102.015044 21.8153006,101.290575 C22.6156924,100.566107 23.2026375,99.6672424 23.5761537,98.5939557 C23.9496699,97.520669 24.1764441,96.3534873 24.2564833,95.0923754 C24.3365225,93.8312635 24.3765415,92.6640818 24.3765415,91.5907951 L24.3765415,55.0455658 L36.8625908,55.0455658 L36.8625908,92.9592288 Z M52.3756019,83.5411851 C52.3756019,78.9797166 53.1359627,74.8476248 54.6567071,71.1447857 C56.1774515,67.4419466 58.2984579,64.2892142 61.0197899,61.686494 C63.7411219,59.0837738 66.9693203,57.0848073 70.704482,55.6895346 C74.4396436,54.2942619 78.5215804,53.596636 82.9504149,53.596636 C87.3792494,53.596636 91.4611862,54.2942619 95.1963479,55.6895346 C98.9315095,57.0848073 102.159708,59.0837738 104.88104,61.686494 C107.602372,64.2892142 109.723378,67.4419466 111.244123,71.1447857 C112.764867,74.8476248 113.525228,78.9797166 113.525228,83.5411851 C113.525228,88.1026535 112.764867,92.2347453 111.244123,95.9375845 C109.723378,99.6404236 107.602372,102.793156 104.88104,105.395876 C102.159708,107.998596 98.9315095,109.997563 95.1963479,111.392836 C91.4611862,112.788108 87.3792494,113.485734 82.9504149,113.485734 C78.5215804,113.485734 74.4396436,112.788108 70.704482,111.392836 C66.9693203,109.997563 63.7411219,107.998596 61.0197899,105.395876 C58.2984579,102.793156 56.1774515,99.6404236 54.6567071,95.9375845 C53.1359627,92.2347453 52.3756019,88.1026535 52.3756019,83.5411851 L52.3756019,83.5411851 Z M65.3418839,83.5411851 C65.3418839,86.2244018 65.7554134,88.6795083 66.5824849,90.9065782 C67.4095564,93.1336481 68.5967864,95.0655352 70.1442105,96.7022974 C71.6916346,98.3390596 73.5458478,99.6135684 75.7069055,100.525862 C77.8679633,101.438156 80.2824423,101.894296 82.9504149,101.894296 C85.6183875,101.894296 88.0328665,101.438156 90.1939243,100.525862 C92.3549821,99.6135684 94.2091952,98.3390596 95.7566193,96.7022974 C97.3040434,95.0655352 98.4912734,93.1336481 99.3183449,90.9065782 C100.145416,88.6795083 100.558946,86.2244018 100.558946,83.5411851 C100.558946,80.9116327 100.145416,78.4699421 99.3183449,76.21604 C98.4912734,73.9621379 97.3040434,72.016835 95.7566193,70.3800728 C94.2091952,68.7433106 92.3549821,67.4688017 90.1939243,66.556508 C88.0328665,65.6442143 85.6183875,65.1880743 82.9504149,65.1880743 C80.2824423,65.1880743 77.8679633,65.6442143 75.7069055,66.556508 C73.5458478,67.4688017 71.6916346,68.7433106 70.1442105,70.3800728 C68.5967864,72.016835 67.4095564,73.9621379 66.5824849,76.21604 C65.7554134,78.4699421 65.3418839,80.9116327 65.3418839,83.5411851 L65.3418839,83.5411851 Z M130.318859,55.0455658 L168.817511,55.0455658 L168.817511,66.6370041 L142.804909,66.6370041 L142.804909,77.2624893 L167.376813,77.2624893 L167.376813,88.8539277 L142.804909,88.8539277 L142.804909,100.445366 L170.258209,100.445366 L170.258209,112.036804 L130.318859,112.036804 L130.318859,55.0455658 Z" id="JOE" fill="#FBFCF6"></path>
                <path d="M65.2623195,29.4074468 L66.6928718,39.5318154 L66.7458552,39.5318154 L71.4878709,29.4074468 L73.2893071,29.4074468 L75.1702183,39.5318154 L75.2232018,39.5318154 L79.5148585,29.4074468 L81.5812117,29.4074468 L75.9119862,41.876406 L73.9515998,41.876406 L72.0971802,31.6454651 L72.0441968,31.6454651 L67.3286728,41.876406 L65.3682864,41.876406 L63.1959663,29.4074468 L65.2623195,29.4074468 Z M87.0649952,24.6116932 C87.0120116,24.9846982 86.8354019,25.2910905 86.5351611,25.5308793 C86.2349202,25.7706682 85.9258534,25.8905608 85.6079513,25.8905608 C85.2900492,25.8905608 85.0163043,25.7706682 84.7867083,25.5308793 C84.5571124,25.2910905 84.4688076,24.9846982 84.5217913,24.6116932 C84.5747749,24.2386883 84.7513846,23.932296 85.0516254,23.6925071 C85.3518663,23.4527183 85.6609331,23.3328256 85.9788352,23.3328256 C86.2967373,23.3328256 86.5704822,23.4527183 86.8000782,23.6925071 C87.0296741,23.932296 87.1179789,24.2386883 87.0649952,24.6116932 L87.0649952,24.6116932 Z M84.2568742,41.876406 L82.5084215,41.876406 L84.2568742,29.4074468 L86.0053269,29.4074468 L84.2568742,41.876406 Z M96.3900765,31.0060313 L92.8136959,31.0060313 L91.807011,38.3595201 C91.7363661,38.8213357 91.7231203,39.1987755 91.7672734,39.4918508 C91.8114265,39.7849261 91.8997313,40.0113899 92.0321905,40.1712492 C92.1646497,40.3311084 92.3412593,40.4421201 92.5620247,40.5042876 C92.78279,40.5664551 93.0256282,40.5975384 93.2905466,40.5975384 C93.5907875,40.5975384 93.9042696,40.5531337 94.2310023,40.464323 C94.557735,40.3755123 94.8623866,40.2600602 95.1449662,40.117963 L95.0125076,41.7431906 C94.3060586,42.045147 93.4936543,42.1961229 92.5752705,42.1961229 C92.2397072,42.1961229 91.8997337,42.1517182 91.5553397,42.0629075 C91.2109458,41.9740968 90.9062942,41.8053591 90.6413758,41.5566891 C90.3764574,41.3080192 90.1733564,40.9705436 90.0320665,40.5442522 C89.8907767,40.1179609 89.8731158,39.5584619 89.9790831,38.8657385 L91.0652431,31.0060313 L88.4425641,31.0060313 L88.6809894,29.4074468 L91.3036685,29.4074468 L91.7805193,25.8905608 L93.528972,25.8905608 L93.0521213,29.4074468 L96.6285018,29.4074468 L96.3900765,31.0060313 Z M100.072424,21.7342411 L101.820877,21.7342411 L100.469799,31.4056774 L100.522783,31.4056774 C100.752379,31.0681968 101.039369,30.757364 101.383763,30.4731698 C101.728157,30.1889756 102.099038,29.9447498 102.496415,29.7404852 C102.893793,29.5362206 103.308825,29.3763638 103.741525,29.2609099 C104.174225,29.145456 104.593673,29.0877299 104.999882,29.0877299 C106.589392,29.0877299 107.706448,29.5095744 108.351083,30.353276 C108.995717,31.1969776 109.212064,32.4003444 109.000129,33.9634127 L107.887478,41.876406 L106.139025,41.876406 L107.092727,34.9758495 C107.198694,34.2831261 107.234016,33.6703415 107.198693,33.1374773 C107.163371,32.6046132 107.044159,32.1561259 106.841055,31.792002 C106.637951,31.4278782 106.3333,31.1525691 105.927091,30.9660667 C105.520883,30.7795642 104.991054,30.6863144 104.337589,30.6863144 C104.249283,30.6863144 103.997614,30.7218381 103.582575,30.7928867 C103.167536,30.8639353 102.712767,31.0593159 102.218252,31.3790344 C101.723738,31.6987529 101.255722,32.1783234 100.814192,32.8177604 C100.372661,33.4571974 100.072425,34.345291 99.9134736,35.4820679 L99.0127556,41.876406 L97.2643028,41.876406 L100.072424,21.7342411 Z" id="with" fill="#FBFCF6"></path>
                <path d="M10.4015631,1.27473062 L11.8963718,1.27473062 L18.4471512,16.9272539 L16.8204476,16.9272539 L15.1277966,12.7709342 L6.88436615,12.7709342 L5.12576766,16.9272539 L3.60897646,16.9272539 L10.4015631,1.27473062 Z M11.08302,2.86651265 L7.45591066,11.4444491 L14.600217,11.4444491 L11.08302,2.86651265 Z M26.779532,1.27473062 L36.100104,1.27473062 L36.100104,2.60121564 L28.2303757,2.60121564 L28.2303757,8.17245275 L35.5505419,8.17245275 L35.5505419,9.49893777 L28.2303757,9.49893777 L28.2303757,16.9272539 L26.779532,16.9272539 L26.779532,1.27473062 Z M39.1891528,1.27473062 L48.7075671,1.27473062 L48.7075671,2.60121564 L40.6399965,2.60121564 L40.6399965,8.17245275 L48.20197,8.17245275 L48.20197,9.49893777 L40.6399965,9.49893777 L40.6399965,15.6007689 L49.0592868,15.6007689 L49.0592868,16.9272539 L39.1891528,16.9272539 L39.1891528,1.27473062 Z M50.3897371,1.27473062 L51.8845458,1.27473062 L55.7534625,15.1364991 L55.7974275,15.1364991 L59.7322916,1.27473062 L61.57882,1.27473062 L65.5136841,15.1364991 L65.5576491,15.1364991 L69.4265658,1.27473062 L70.9213745,1.27473062 L66.3929834,16.9272539 L64.6124024,16.9272539 L60.6775383,2.99916115 L60.6335733,2.99916115 L56.6987092,16.9272539 L54.9181282,16.9272539 L50.3897371,1.27473062 Z M79.0998779,1.27473062 L81.2761435,1.27473062 L86.9476236,14.4069324 L92.6191038,1.27473062 L94.685457,1.27473062 L94.685457,16.9272539 L93.2346132,16.9272539 L93.2346132,3.13180965 L93.1906483,3.13180965 L87.2553784,16.9272539 L86.6178864,16.9272539 L80.5946866,3.13180965 L80.5507216,3.13180965 L80.5507216,16.9272539 L79.0998779,16.9272539 L79.0998779,1.27473062 Z M98.9835423,1.27473062 L100.434386,1.27473062 L100.434386,16.9272539 L98.9835423,16.9272539 L98.9835423,1.27473062 Z M104.886349,1.27473062 L106.75486,1.27473062 L116.229309,14.9817425 L116.273274,14.9817425 L116.273274,1.27473062 L117.724118,1.27473062 L117.724118,16.9272539 L115.855607,16.9272539 L106.381157,3.22024199 L106.337192,3.22024199 L106.337192,16.9272539 L104.886349,16.9272539 L104.886349,1.27473062 Z M133.233268,10.9359632 C133.233268,11.7760746 133.138012,12.5793269 132.947496,13.3457443 C132.75698,14.1121617 132.438237,14.7901362 131.991258,15.379688 C131.544279,15.9692399 130.958085,16.4408743 130.23266,16.7946054 C129.507234,17.1483365 128.616953,17.3251994 127.561788,17.3251994 C126.506624,17.3251994 125.616342,17.1483365 124.890917,16.7946054 C124.165491,16.4408743 123.579298,15.9692399 123.132318,15.379688 C122.685339,14.7901362 122.366596,14.1121617 122.17608,13.3457443 C121.985564,12.5793269 121.890308,11.7760746 121.890308,10.9359632 L121.890308,1.27473062 L123.341152,1.27473062 L123.341152,10.5601258 C123.341152,11.1202 123.392444,11.7171123 123.495029,12.3508806 C123.597615,12.9846488 123.799119,13.5741918 124.099547,14.1195273 C124.399976,14.6648627 124.824966,15.1143893 125.374531,15.4681204 C125.924096,15.8218515 126.653174,15.9987144 127.561788,15.9987144 C128.470402,15.9987144 129.19948,15.8218515 129.749045,15.4681204 C130.29861,15.1143893 130.7236,14.6648627 131.024029,14.1195273 C131.324458,13.5741918 131.525962,12.9846488 131.628547,12.3508806 C131.731133,11.7171123 131.782425,11.1202 131.782425,10.5601258 L131.782425,1.27473062 L133.233268,1.27473062 L133.233268,10.9359632 Z M140.850708,2.60121564 L135.530948,2.60121564 L135.530948,1.27473062 L147.621312,1.27473062 L147.621312,2.60121564 L142.301552,2.60121564 L142.301552,16.9272539 L140.850708,16.9272539 L140.850708,2.60121564 Z M150.204764,1.27473062 L159.723178,1.27473062 L159.723178,2.60121564 L151.655608,2.60121564 L151.655608,8.17245275 L159.217581,8.17245275 L159.217581,9.49893777 L151.655608,9.49893777 L151.655608,15.6007689 L160.074898,15.6007689 L160.074898,16.9272539 L150.204764,16.9272539 L150.204764,1.27473062 Z M163.845404,14.0310949 C164.226435,14.6943408 164.721036,15.188083 165.329221,15.5123365 C165.937406,15.8365901 166.629848,15.9987144 167.406566,15.9987144 C167.890183,15.9987144 168.344483,15.9250215 168.76948,15.7776336 C169.194476,15.6302456 169.564511,15.4239055 169.879595,15.1586072 C170.194679,14.8933089 170.443811,14.5727449 170.626999,14.1969056 C170.810188,13.8210663 170.90178,13.3973322 170.90178,12.9256907 C170.90178,12.3803553 170.788205,11.9308287 170.561052,11.5770976 C170.333898,11.2233665 170.02981,10.9322797 169.648779,10.7038283 C169.267747,10.475377 168.839093,10.2800909 168.362804,10.1179641 C167.886514,9.95583736 167.395577,9.79371303 166.889977,9.63158627 C166.384378,9.46945951 165.893441,9.28522733 165.417151,9.07888418 C164.940862,8.87254103 164.512208,8.60356204 164.131176,8.27193912 C163.750145,7.94031621 163.446057,7.52395146 163.218903,7.02283239 C162.99175,6.52171332 162.878175,5.90269317 162.878175,5.16575336 C162.878175,4.47302994 163.013732,3.85769443 163.284851,3.31972837 C163.555969,2.7817623 163.92234,2.33223576 164.383975,1.97113526 C164.845609,1.61003475 165.376847,1.33737111 165.977705,1.15313616 C166.578562,0.968901207 167.20872,0.876785113 167.868198,0.876785113 C168.718191,0.876785113 169.505889,1.02785551 170.231315,1.33000083 C170.95674,1.63214615 171.583235,2.13694235 172.110817,2.84440457 L170.857815,3.750836 C170.491439,3.23497813 170.062785,2.84809054 169.57184,2.5901616 C169.080896,2.33223267 168.498366,2.20327014 167.824233,2.20327014 C167.355271,2.20327014 166.908298,2.26590908 166.483302,2.39118885 C166.058305,2.51646862 165.68827,2.7007008 165.373186,2.94389094 C165.058102,3.18708108 164.805306,3.49290651 164.614791,3.86137642 C164.424275,4.22984632 164.329018,4.66463429 164.329018,5.16575336 C164.329018,5.94690956 164.526859,6.54750649 164.922545,6.96756218 C165.318232,7.38761787 165.812833,7.71923581 166.406363,7.96242595 C166.999893,8.20561609 167.644706,8.41932543 168.340821,8.60356038 C169.036937,8.78779533 169.68175,9.03466646 170.27528,9.34418118 C170.86881,9.6536959 171.36341,10.0847992 171.759097,10.6375041 C172.154784,11.1902089 172.352624,11.9529302 172.352624,12.9256907 C172.352624,13.633153 172.22073,14.2595424 171.956939,14.8048779 C171.693148,15.3502133 171.337768,15.8107938 170.890789,16.1866331 C170.44381,16.5624724 169.927227,16.84619 169.341024,17.0377943 C168.754822,17.2293987 168.146646,17.3251994 167.516478,17.3251994 C166.490624,17.3251994 165.545387,17.1446519 164.680738,16.7835514 C163.81609,16.4224509 163.07602,15.8144846 162.460508,14.9596345 L163.845404,14.0310949 Z" id="A-FEW-MINUTES" fill="#FBFCF6"></path>
                <path d="M169.45793,34.5387615 L114.092246,34.5387615 L169.45793,34.5387615 Z M56.5607422,34.5387615 L1.19505902,34.5387615 L56.5607422,34.5387615 Z" id="Line" stroke="#FBFCF6" stroke-linecap="square"></path>
            </g>
        </g>
    </g>
</svg>