<?xml version="1.0" encoding="UTF-8"?>
<svg width="201px" height="200px" viewBox="0 0 201 200" version="1.1" xmlns="http://www.w3.org/2000/svg" xmlns:xlink="http://www.w3.org/1999/xlink">
    <!-- Generator: Sketch 41.2 (35397) - http://www.bohemiancoding.com/sketch -->
    <title>Dark Title Block Copy</title>
    <desc>Created with Sketch.</desc>
    <defs>
        <rect id="path-1" x="0" y="0" width="200.392508" height="199.834369"></rect>
        <mask id="mask-2" maskContentUnits="userSpaceOnUse" maskUnits="objectBoundingBox" x="0" y="0" width="200.392508" height="199.834369" fill="white">
            <use xlink:href="#path-1"></use>
        </mask>
    </defs>
    <g id="Canvas" stroke="none" stroke-width="1" fill="none" fill-rule="evenodd">
        <g id="Dark-Title">
            <g id="Dark-Title-Block-Copy">
                <path d="M15.1930441,133.808382 L31.54801,133.808382 C35.5086341,133.808382 39.2711706,134.253562 42.8357323,135.143937 C46.400294,136.034311 49.5105021,137.47529 52.16645,139.466917 C54.822398,141.458544 56.9308162,144.047621 58.4917681,147.234224 C60.0527199,150.420827 60.8331841,154.286869 60.8331841,158.832465 C60.8331841,162.862581 60.0760174,166.41231 58.5616611,169.481759 C57.0473048,172.551208 55.0087789,175.128569 52.4460221,177.213919 C49.8832653,179.29927 46.9244905,180.880833 43.569609,181.958654 C40.2147274,183.036476 36.696814,183.575379 33.0157634,183.575379 L15.1930441,183.575379 L15.1930441,133.808382 Z M26.0963547,173.453278 L31.7576891,173.453278 C34.2738503,173.453278 36.6152429,173.195542 38.7819373,172.680062 C40.9486317,172.164582 42.8240755,171.309366 44.4083252,170.11439 C45.9925748,168.919414 47.2389878,167.349567 48.1476016,165.404801 C49.0562153,163.460036 49.5105154,161.081835 49.5105154,158.270126 C49.5105154,155.833312 49.0562153,153.712846 48.1476016,151.908667 C47.2389878,150.104487 46.0158722,148.616647 44.4782182,147.445101 C42.9405641,146.273556 41.1350126,145.39491 39.0615094,144.809137 C36.9880062,144.223365 34.8096956,143.930483 32.5265123,143.930483 L26.0963547,143.930483 L26.0963547,173.453278 Z M82.1955032,133.808382 L91.2117024,133.808382 L112.738752,183.575379 L100.437581,183.575379 L96.1741066,173.031523 L76.9535269,173.031523 L72.8298389,183.575379 L60.80824,183.575379 L82.1955032,133.808382 Z M86.3890842,148.28861 L80.3782848,163.752931 L92.4697767,163.752931 L86.3890842,148.28861 Z M115.7891,133.808382 L126.692411,133.808382 L126.692411,173.453278 L146.891493,173.453278 L146.891493,183.575379 L115.7891,183.575379 L115.7891,133.808382 Z M154.974139,162.347083 L136.382596,133.808382 L149.941841,133.808382 L160.425794,152.435859 L171.538784,133.808382 L184.468992,133.808382 L165.877449,162.347083 L165.877449,183.575379 L154.974139,183.575379 L154.974139,162.347083 Z" id="DALY" fill="#FBFCF6"></path>
                <path d="M50.8625908,108.959229 C50.8625908,111.588781 50.6358165,114.137799 50.1822612,116.606358 C49.7287058,119.074918 48.8616277,121.261706 47.5810009,123.16679 C46.300374,125.071874 44.4728402,126.601285 42.0983446,127.755068 C39.723849,128.908851 36.6157076,129.485734 32.7738271,129.485734 C28.2916331,129.485734 24.5031689,128.412464 21.4083207,126.26589 C18.3134725,124.119317 16.312523,120.765346 15.4054124,116.203878 L26.8509575,113.386514 C27.0110359,114.781787 27.638,115.962385 28.7318688,116.928343 C29.8257376,117.894301 31.0663262,118.377272 32.453672,118.377272 C33.8943771,118.377272 35.0149088,118.015044 35.8153006,117.290575 C36.6156924,116.566107 37.2026375,115.667242 37.5761537,114.593956 C37.9496699,113.520669 38.1764441,112.353487 38.2564833,111.092375 C38.3365225,109.831264 38.3765415,108.664082 38.3765415,107.590795 L38.3765415,71.0455658 L50.8625908,71.0455658 L50.8625908,108.959229 Z M66.3756019,99.5411851 C66.3756019,94.9797166 67.1359627,90.8476248 68.6567071,87.1447857 C70.1774515,83.4419466 72.2984579,80.2892142 75.0197899,77.686494 C77.7411219,75.0837738 80.9693203,73.0848073 84.704482,71.6895346 C88.4396436,70.2942619 92.5215804,69.596636 96.9504149,69.596636 C101.379249,69.596636 105.461186,70.2942619 109.196348,71.6895346 C112.931509,73.0848073 116.159708,75.0837738 118.88104,77.686494 C121.602372,80.2892142 123.723378,83.4419466 125.244123,87.1447857 C126.764867,90.8476248 127.525228,94.9797166 127.525228,99.5411851 C127.525228,104.102654 126.764867,108.234745 125.244123,111.937584 C123.723378,115.640424 121.602372,118.793156 118.88104,121.395876 C116.159708,123.998596 112.931509,125.997563 109.196348,127.392836 C105.461186,128.788108 101.379249,129.485734 96.9504149,129.485734 C92.5215804,129.485734 88.4396436,128.788108 84.704482,127.392836 C80.9693203,125.997563 77.7411219,123.998596 75.0197899,121.395876 C72.2984579,118.793156 70.1774515,115.640424 68.6567071,111.937584 C67.1359627,108.234745 66.3756019,104.102654 66.3756019,99.5411851 L66.3756019,99.5411851 Z M79.3418839,99.5411851 C79.3418839,102.224402 79.7554134,104.679508 80.5824849,106.906578 C81.4095564,109.133648 82.5967864,111.065535 84.1442105,112.702297 C85.6916346,114.33906 87.5458478,115.613568 89.7069055,116.525862 C91.8679633,117.438156 94.2824423,117.894296 96.9504149,117.894296 C99.6183875,117.894296 102.032866,117.438156 104.193924,116.525862 C106.354982,115.613568 108.209195,114.33906 109.756619,112.702297 C111.304043,111.065535 112.491273,109.133648 113.318345,106.906578 C114.145416,104.679508 114.558946,102.224402 114.558946,99.5411851 C114.558946,96.9116327 114.145416,94.4699421 113.318345,92.21604 C112.491273,89.9621379 111.304043,88.016835 109.756619,86.3800728 C108.209195,84.7433106 106.354982,83.4688017 104.193924,82.556508 C102.032866,81.6442143 99.6183875,81.1880743 96.9504149,81.1880743 C94.2824423,81.1880743 91.8679633,81.6442143 89.7069055,82.556508 C87.5458478,83.4688017 85.6916346,84.7433106 84.1442105,86.3800728 C82.5967864,88.016835 81.4095564,89.9621379 80.5824849,92.21604 C79.7554134,94.4699421 79.3418839,96.9116327 79.3418839,99.5411851 L79.3418839,99.5411851 Z M144.318859,71.0455658 L182.817511,71.0455658 L182.817511,82.6370041 L156.804909,82.6370041 L156.804909,93.2624893 L181.376813,93.2624893 L181.376813,104.853928 L156.804909,104.853928 L156.804909,116.445366 L184.258209,116.445366 L184.258209,128.036804 L144.318859,128.036804 L144.318859,71.0455658 Z" id="JOE" fill="#FBFCF6"></path>
                <path d="M79.2623195,45.4074468 L80.6928718,55.5318154 L80.7458552,55.5318154 L85.4878709,45.4074468 L87.2893071,45.4074468 L89.1702183,55.5318154 L89.2232018,55.5318154 L93.5148585,45.4074468 L95.5812117,45.4074468 L89.9119862,57.876406 L87.9515998,57.876406 L86.0971802,47.6454651 L86.0441968,47.6454651 L81.3286728,57.876406 L79.3682864,57.876406 L77.1959663,45.4074468 L79.2623195,45.4074468 Z M101.064995,40.6116932 C101.012012,40.9846982 100.835402,41.2910905 100.535161,41.5308793 C100.23492,41.7706682 99.9258534,41.8905608 99.6079513,41.8905608 C99.2900492,41.8905608 99.0163043,41.7706682 98.7867083,41.5308793 C98.5571124,41.2910905 98.4688076,40.9846982 98.5217913,40.6116932 C98.5747749,40.2386883 98.7513846,39.932296 99.0516254,39.6925071 C99.3518663,39.4527183 99.6609331,39.3328256 99.9788352,39.3328256 C100.296737,39.3328256 100.570482,39.4527183 100.800078,39.6925071 C101.029674,39.932296 101.117979,40.2386883 101.064995,40.6116932 L101.064995,40.6116932 Z M98.2568742,57.876406 L96.5084215,57.876406 L98.2568742,45.4074468 L100.005327,45.4074468 L98.2568742,57.876406 Z M110.390076,47.0060313 L106.813696,47.0060313 L105.807011,54.3595201 C105.736366,54.8213357 105.72312,55.1987755 105.767273,55.4918508 C105.811426,55.7849261 105.899731,56.0113899 106.03219,56.1712492 C106.16465,56.3311084 106.341259,56.4421201 106.562025,56.5042876 C106.78279,56.5664551 107.025628,56.5975384 107.290547,56.5975384 C107.590787,56.5975384 107.90427,56.5531337 108.231002,56.464323 C108.557735,56.3755123 108.862387,56.2600602 109.144966,56.117963 L109.012508,57.7431906 C108.306059,58.045147 107.493654,58.1961229 106.575271,58.1961229 C106.239707,58.1961229 105.899734,58.1517182 105.55534,58.0629075 C105.210946,57.9740968 104.906294,57.8053591 104.641376,57.5566891 C104.376457,57.3080192 104.173356,56.9705436 104.032067,56.5442522 C103.890777,56.1179609 103.873116,55.5584619 103.979083,54.8657385 L105.065243,47.0060313 L102.442564,47.0060313 L102.680989,45.4074468 L105.303669,45.4074468 L105.780519,41.8905608 L107.528972,41.8905608 L107.052121,45.4074468 L110.628502,45.4074468 L110.390076,47.0060313 Z M114.072424,37.7342411 L115.820877,37.7342411 L114.469799,47.4056774 L114.522783,47.4056774 C114.752379,47.0681968 115.039369,46.757364 115.383763,46.4731698 C115.728157,46.1889756 116.099038,45.9447498 116.496415,45.7404852 C116.893793,45.5362206 117.308825,45.3763638 117.741525,45.2609099 C118.174225,45.145456 118.593673,45.0877299 118.999882,45.0877299 C120.589392,45.0877299 121.706448,45.5095744 122.351083,46.353276 C122.995717,47.1969776 123.212064,48.4003444 123.000129,49.9634127 L121.887478,57.876406 L120.139025,57.876406 L121.092727,50.9758495 C121.198694,50.2831261 121.234016,49.6703415 121.198693,49.1374773 C121.163371,48.6046132 121.044159,48.1561259 120.841055,47.792002 C120.637951,47.4278782 120.3333,47.1525691 119.927091,46.9660667 C119.520883,46.7795642 118.991054,46.6863144 118.337589,46.6863144 C118.249283,46.6863144 117.997614,46.7218381 117.582575,46.7928867 C117.167536,46.8639353 116.712767,47.0593159 116.218252,47.3790344 C115.723738,47.6987529 115.255722,48.1783234 114.814192,48.8177604 C114.372661,49.4571974 114.072425,50.345291 113.913474,51.4820679 L113.012756,57.876406 L111.264303,57.876406 L114.072424,37.7342411 Z" id="with" fill="#FBFCF6"></path>
                <path d="M24.4015631,17.2747306 L25.8963718,17.2747306 L32.4471512,32.9272539 L30.8204476,32.9272539 L29.1277966,28.7709342 L20.8843662,28.7709342 L19.1257677,32.9272539 L17.6089765,32.9272539 L24.4015631,17.2747306 Z M25.08302,18.8665126 L21.4559107,27.4444491 L28.600217,27.4444491 L25.08302,18.8665126 Z M40.779532,17.2747306 L50.100104,17.2747306 L50.100104,18.6012156 L42.2303757,18.6012156 L42.2303757,24.1724527 L49.5505419,24.1724527 L49.5505419,25.4989378 L42.2303757,25.4989378 L42.2303757,32.9272539 L40.779532,32.9272539 L40.779532,17.2747306 Z M53.1891528,17.2747306 L62.7075671,17.2747306 L62.7075671,18.6012156 L54.6399965,18.6012156 L54.6399965,24.1724527 L62.20197,24.1724527 L62.20197,25.4989378 L54.6399965,25.4989378 L54.6399965,31.6007689 L63.0592868,31.6007689 L63.0592868,32.9272539 L53.1891528,32.9272539 L53.1891528,17.2747306 Z M64.3897371,17.2747306 L65.8845458,17.2747306 L69.7534625,31.1364991 L69.7974275,31.1364991 L73.7322916,17.2747306 L75.57882,17.2747306 L79.5136841,31.1364991 L79.5576491,31.1364991 L83.4265658,17.2747306 L84.9213745,17.2747306 L80.3929834,32.9272539 L78.6124024,32.9272539 L74.6775383,18.9991612 L74.6335733,18.9991612 L70.6987092,32.9272539 L68.9181282,32.9272539 L64.3897371,17.2747306 Z M93.0998779,17.2747306 L95.2761435,17.2747306 L100.947624,30.4069324 L106.619104,17.2747306 L108.685457,17.2747306 L108.685457,32.9272539 L107.234613,32.9272539 L107.234613,19.1318097 L107.190648,19.1318097 L101.255378,32.9272539 L100.617886,32.9272539 L94.5946866,19.1318097 L94.5507216,19.1318097 L94.5507216,32.9272539 L93.0998779,32.9272539 L93.0998779,17.2747306 Z M112.983542,17.2747306 L114.434386,17.2747306 L114.434386,32.9272539 L112.983542,32.9272539 L112.983542,17.2747306 Z M118.886349,17.2747306 L120.75486,17.2747306 L130.229309,30.9817425 L130.273274,30.9817425 L130.273274,17.2747306 L131.724118,17.2747306 L131.724118,32.9272539 L129.855607,32.9272539 L120.381157,19.220242 L120.337192,19.220242 L120.337192,32.9272539 L118.886349,32.9272539 L118.886349,17.2747306 Z M147.233268,26.9359632 C147.233268,27.7760746 147.138012,28.5793269 146.947496,29.3457443 C146.75698,30.1121617 146.438237,30.7901362 145.991258,31.379688 C145.544279,31.9692399 144.958085,32.4408743 144.23266,32.7946054 C143.507234,33.1483365 142.616953,33.3251994 141.561788,33.3251994 C140.506624,33.3251994 139.616342,33.1483365 138.890917,32.7946054 C138.165491,32.4408743 137.579298,31.9692399 137.132318,31.379688 C136.685339,30.7901362 136.366596,30.1121617 136.17608,29.3457443 C135.985564,28.5793269 135.890308,27.7760746 135.890308,26.9359632 L135.890308,17.2747306 L137.341152,17.2747306 L137.341152,26.5601258 C137.341152,27.1202 137.392444,27.7171123 137.495029,28.3508806 C137.597615,28.9846488 137.799119,29.5741918 138.099547,30.1195273 C138.399976,30.6648627 138.824966,31.1143893 139.374531,31.4681204 C139.924096,31.8218515 140.653174,31.9987144 141.561788,31.9987144 C142.470402,31.9987144 143.19948,31.8218515 143.749045,31.4681204 C144.29861,31.1143893 144.7236,30.6648627 145.024029,30.1195273 C145.324458,29.5741918 145.525962,28.9846488 145.628547,28.3508806 C145.731133,27.7171123 145.782425,27.1202 145.782425,26.5601258 L145.782425,17.2747306 L147.233268,17.2747306 L147.233268,26.9359632 Z M154.850708,18.6012156 L149.530948,18.6012156 L149.530948,17.2747306 L161.621312,17.2747306 L161.621312,18.6012156 L156.301552,18.6012156 L156.301552,32.9272539 L154.850708,32.9272539 L154.850708,18.6012156 Z M164.204764,17.2747306 L173.723178,17.2747306 L173.723178,18.6012156 L165.655608,18.6012156 L165.655608,24.1724527 L173.217581,24.1724527 L173.217581,25.4989378 L165.655608,25.4989378 L165.655608,31.6007689 L174.074898,31.6007689 L174.074898,32.9272539 L164.204764,32.9272539 L164.204764,17.2747306 Z M177.845404,30.0310949 C178.226435,30.6943408 178.721036,31.188083 179.329221,31.5123365 C179.937406,31.8365901 180.629848,31.9987144 181.406566,31.9987144 C181.890183,31.9987144 182.344483,31.9250215 182.76948,31.7776336 C183.194476,31.6302456 183.564511,31.4239055 183.879595,31.1586072 C184.194679,30.8933089 184.443811,30.5727449 184.626999,30.1969056 C184.810188,29.8210663 184.90178,29.3973322 184.90178,28.9256907 C184.90178,28.3803553 184.788205,27.9308287 184.561052,27.5770976 C184.333898,27.2233665 184.02981,26.9322797 183.648779,26.7038283 C183.267747,26.475377 182.839093,26.2800909 182.362804,26.1179641 C181.886514,25.9558374 181.395577,25.793713 180.889977,25.6315863 C180.384378,25.4694595 179.893441,25.2852273 179.417151,25.0788842 C178.940862,24.872541 178.512208,24.603562 178.131176,24.2719391 C177.750145,23.9403162 177.446057,23.5239515 177.218903,23.0228324 C176.99175,22.5217133 176.878175,21.9026932 176.878175,21.1657534 C176.878175,20.4730299 177.013732,19.8576944 177.284851,19.3197284 C177.555969,18.7817623 177.92234,18.3322358 178.383975,17.9711353 C178.845609,17.6100348 179.376847,17.3373711 179.977705,17.1531362 C180.578562,16.9689012 181.20872,16.8767851 181.868198,16.8767851 C182.718191,16.8767851 183.505889,17.0278555 184.231315,17.3300008 C184.95674,17.6321462 185.583235,18.1369423 186.110817,18.8444046 L184.857815,19.750836 C184.491439,19.2349781 184.062785,18.8480905 183.57184,18.5901616 C183.080896,18.3322327 182.498366,18.2032701 181.824233,18.2032701 C181.355271,18.2032701 180.908298,18.2659091 180.483302,18.3911888 C180.058305,18.5164686 179.68827,18.7007008 179.373186,18.9438909 C179.058102,19.1870811 178.805306,19.4929065 178.614791,19.8613764 C178.424275,20.2298463 178.329018,20.6646343 178.329018,21.1657534 C178.329018,21.9469096 178.526859,22.5475065 178.922545,22.9675622 C179.318232,23.3876179 179.812833,23.7192358 180.406363,23.962426 C180.999893,24.2056161 181.644706,24.4193254 182.340821,24.6035604 C183.036937,24.7877953 183.68175,25.0346665 184.27528,25.3441812 C184.86881,25.6536959 185.36341,26.0847992 185.759097,26.6375041 C186.154784,27.1902089 186.352624,27.9529302 186.352624,28.9256907 C186.352624,29.633153 186.22073,30.2595424 185.956939,30.8048779 C185.693148,31.3502133 185.337768,31.8107938 184.890789,32.1866331 C184.44381,32.5624724 183.927227,32.84619 183.341024,33.0377943 C182.754822,33.2293987 182.146646,33.3251994 181.516478,33.3251994 C180.490624,33.3251994 179.545387,33.1446519 178.680738,32.7835514 C177.81609,32.4224509 177.07602,31.8144846 176.460508,30.9596345 L177.845404,30.0310949 Z" id="A-FEW-MINUTES" fill="#FBFCF6"></path>
                <path d="M183.45793,50.5387615 L128.092246,50.5387615 L183.45793,50.5387615 Z M70.5607422,50.5387615 L15.195059,50.5387615 L70.5607422,50.5387615 Z" id="Line" stroke="#FBFCF6" stroke-linecap="square"></path>
                <use id="Rectangle-6" stroke="#FBFCF6" mask="url(#mask-2)" stroke-width="6" xlink:href="#path-1"></use>
            </g>
        </g>
    </g>
</svg>